<svg id="Filled" height="512" viewBox="0 0 512 512" width="512" xmlns="http://www.w3.org/2000/svg"><path d="m127.993 454.145a15.993 15.993 0 0 1 -21.595-6.636l-42.398-81.009 24-24 46.641 90.092a15.93 15.93 0 0 1 -6.648 21.553z" fill="#eb423f"/><path d="m488 141.227-23.796 24.113 5.081 33.499-33.442 5.502-15.554 30.112-30.289-15.226-30.29 15.226-15.554-30.113-33.441-5.502 5.081-33.498-23.796-24.113 23.796-24.114-5.081-33.499 33.442-5.501 15.554-30.113 30.289 15.227 30.29-15.227 15.554 30.113 33.441 5.502-5.081 33.499z" fill="#f7b030"/><path d="m240 318.5-136 40-40-72 112-88z" fill="#f7b030"/><path d="m104 358.5-21.466 10.378a39.439 39.439 0 0 1 -53.434-16.532 39.825 39.825 0 0 1 16.452-53.7l18.448-12.146z" fill="#eb423f"/><path d="m257.062 322.141a15.781 15.781 0 0 1 -21.42-6.652l-59.3-113.025a16.054 16.054 0 0 1 6.594-21.6 15.781 15.781 0 0 1 21.42 6.652l59.3 113.025a16.054 16.054 0 0 1 -6.594 21.6z" fill="#eb423f"/><path d="m280.438 209.828-21.212 11.225a8 8 0 1 0 7.484 14.147l21.213-11.226a8 8 0 1 0 -7.485-14.141z"/><path d="m311.183 258.437-28.7-2.917a8 8 0 0 0 -1.617 15.918l28.7 2.916a7.99 7.99 0 0 0 8.768-7.149 8 8 0 0 0 -7.151-8.768z"/><path d="m244.252 200.771a8 8 0 0 0 7.042-4.194l13.729-25.367a8 8 0 1 0 -14.07-7.616l-13.729 25.367a8 8 0 0 0 7.028 11.81z"/><path d="m416.343 101.343-64 64a8 8 0 0 0 11.314 11.314l64-64a8 8 0 0 0 -11.314-11.314z"/><path d="m472.715 115.122 4.479-29.534a8 8 0 0 0 -6.61-9.093l-29.477-4.85-13.707-26.545a8 8 0 0 0 -10.7-3.477l-26.7 13.423-26.7-13.42a8 8 0 0 0 -10.7 3.474l-13.71 26.542-29.477 4.85a8 8 0 0 0 -6.61 9.093l4.478 29.535-20.979 21.259a8 8 0 0 0 0 11.238l20.979 21.259-4.479 29.534a8 8 0 0 0 6.61 9.093l29.477 4.85 13.711 26.547a8 8 0 0 0 10.7 3.477l26.7-13.423 26.7 13.42a8 8 0 0 0 10.7-3.476l13.71-26.542 29.477-4.85a8 8 0 0 0 6.61-9.093l-4.478-29.535 20.979-21.259a8 8 0 0 0 0-11.238zm-14.2 45.372a8 8 0 0 0 -2.215 6.819l3.89 25.687-25.646 4.219a8 8 0 0 0 -5.809 4.223l-11.923 23.082-23.219-11.672a8 8 0 0 0 -7.186 0l-23.22 11.672-11.923-23.083a8 8 0 0 0 -5.809-4.222l-25.645-4.219 3.895-25.688a8 8 0 0 0 -2.215-6.818l-18.251-18.494 18.251-18.494a8 8 0 0 0 2.215-6.819l-3.895-25.687 25.646-4.219a8 8 0 0 0 5.809-4.223l11.923-23.082 23.219 11.672a8 8 0 0 0 7.186 0l23.22-11.672 11.923 23.083a8 8 0 0 0 5.809 4.222l25.645 4.219-3.89 25.688a8 8 0 0 0 2.215 6.818l18.246 18.494z"/><path d="m197.33 171.554a23.566 23.566 0 0 0 -18.158 1.748 24.047 24.047 0 0 0 -12.648 21.97l-107.201 84.228-17.874 11.77a47.89 47.89 0 0 0 -19.428 64.3 47.577 47.577 0 0 0 40.8 25.418l36.509 69.769a23.987 23.987 0 0 0 44.108-4.168 23.717 23.717 0 0 0 -1.692-18.175l-15.055-29.079a39.765 39.765 0 0 0 12.789-43.435l96.849-28.484a24.011 24.011 0 0 0 13.351 4.089 23.622 23.622 0 0 0 11.148-2.81 24.091 24.091 0 0 0 9.912-32.379l-59.3-113.025a23.717 23.717 0 0 0 -14.11-11.737zm-118.552 189.761a31.438 31.438 0 0 1 -42.6-13.2 31.854 31.854 0 0 1 13.13-42.9c.22-.117.435-.245.644-.382l11.248-7.407 24.384 43.89 7.316 13.167-13.843 6.693c-.097.045-.189.091-.279.139zm48.795 74.524a7.931 7.931 0 0 1 -3.317 10.732 7.991 7.991 0 0 1 -10.771-3.271l-33.975-64.918a48 48 0 0 0 6.638-2.865l8.154-3.942zm-18.7-70.932 15.253-4.486a23.688 23.688 0 0 1 -5.057 24.181zm-.983-16.388-33.584-60.442 97.847-76.877 53.824 102.589zm145.41-33.936a7.677 7.677 0 0 1 -5.916.572 7.827 7.827 0 0 1 -4.651-3.883l-59.3-113.025a8.051 8.051 0 0 1 3.278-10.83 7.682 7.682 0 0 1 5.916-.572 7.827 7.827 0 0 1 4.651 3.883l59.3 113.025a8.051 8.051 0 0 1 -3.278 10.83z"/><circle cx="358" cy="115" r="8"/><circle cx="422" cy="163" r="8"/></svg>